<svg width="898" height="173" viewBox="0 0 898 173" fill="none" xmlns="http://www.w3.org/2000/svg">
<path d="M454.608 13.0856V63.1285H454.625C454.625 64.6468 455.248 66.0335 456.266 67.0515V67.0691C457.258 68.0696 458.654 68.6839 460.181 68.6839H493.54C495.067 68.6839 496.454 68.0608 497.463 67.0515L497.472 67.0603C498.481 66.051 499.104 64.6556 499.104 63.1285H499.122V13.0856H510.197V63.1285H510.224C510.224 67.701 508.354 71.8698 505.326 74.8888V74.9064C502.307 77.9255 498.139 79.8036 493.54 79.8036H460.181C455.608 79.8036 451.448 77.9255 448.412 74.8976L448.403 74.9064C445.384 71.8873 443.506 67.7185 443.506 63.1285H443.532V13.0856H454.608ZM842.401 58.8017V63.1285C842.401 64.6644 843.024 66.051 844.024 67.0515L844.042 67.0691C845.043 68.0696 846.429 68.6839 847.965 68.6839H881.324C882.86 68.6839 884.247 68.0696 885.247 67.0691V67.0515C886.256 66.0335 886.88 64.6468 886.88 63.1285V60.5921C886.88 58.8193 886.248 57.222 885.177 56.0372C884.106 54.8348 882.588 54.0274 880.85 53.8255L847.228 50.0956C842.69 49.5865 838.715 47.4275 835.854 44.2417C833.001 41.0471 831.29 36.852 831.29 32.2971V29.7695C831.29 25.1882 833.159 21.0282 836.187 18.0003L836.205 17.9828C839.224 14.9637 843.393 13.0856 847.965 13.0856H881.324C885.897 13.0856 890.065 14.9637 893.102 17.9916L893.111 17.9828C896.13 21.0019 897.999 25.1706 897.999 29.7695V34.0962H886.88V29.7695C886.88 28.2424 886.256 26.8557 885.247 25.8464V25.8201C884.247 24.8284 882.86 24.2052 881.324 24.2052H847.965C846.429 24.2052 845.043 24.8284 844.033 25.8377C843.033 26.8382 842.401 28.2336 842.401 29.7695V32.2971C842.401 34.0699 843.042 35.6672 844.103 36.8608C845.183 38.0544 846.693 38.8706 848.448 39.0637L882.061 42.7936C886.599 43.3026 890.583 45.4616 893.435 48.6475C896.288 51.8421 897.999 56.0372 897.999 60.5921V63.1285C897.999 67.7185 896.13 71.8873 893.111 74.9064L893.102 74.8976C890.065 77.9255 885.897 79.8036 881.324 79.8036H847.965C843.401 79.8036 839.233 77.9255 836.205 74.9064L836.187 74.8888C833.159 71.8522 831.29 67.6922 831.29 63.1285V58.8017H842.401ZM521.062 159.871V110.293C521.062 105.571 522.993 101.288 526.091 98.1814C529.198 95.0745 533.481 93.1525 538.212 93.1525H570.64C575.353 93.1525 579.645 95.0745 582.743 98.1814C585.85 101.288 587.781 105.571 587.781 110.293V134.998H587.868V146.109H587.781V159.871H576.67V146.109H532.173V159.871H521.062ZM432.632 138.807V143.134C432.632 147.724 430.762 151.884 427.743 154.903C424.724 157.922 420.564 159.792 415.974 159.792H382.65C378.06 159.792 373.891 157.922 370.872 154.903V154.886C367.862 151.866 365.993 147.706 365.993 143.134V109.81C365.993 105.238 367.862 101.078 370.872 98.0585V98.0409C373.891 95.0219 378.06 93.1525 382.65 93.1525H415.974C420.538 93.1525 424.689 95.0219 427.717 98.0409L427.743 98.0585C430.762 101.086 432.632 105.246 432.632 109.81V114.128H421.521V109.81C421.521 108.274 420.906 106.888 419.915 105.896L419.888 105.869C418.897 104.878 417.51 104.255 415.974 104.255H382.65C381.132 104.255 379.745 104.887 378.727 105.896L378.718 105.878C377.718 106.888 377.095 108.283 377.095 109.81V143.134C377.095 144.661 377.718 146.057 378.718 147.066L378.727 147.048C379.745 148.058 381.132 148.689 382.65 148.689H415.974C417.492 148.689 418.879 148.058 419.888 147.048C420.898 146.039 421.521 144.652 421.521 143.134V138.807H432.632ZM654.218 139.667H609.73V159.871H598.619V93.1525H665.337V104.255H609.73V128.565H654.218V139.667ZM499.095 159.871V145.697C499.095 144.047 498.411 142.537 497.322 141.449C496.234 140.361 494.76 139.685 493.127 139.667H454.643V159.871H443.532V93.1525H493.057C497.779 93.1525 502.062 95.0745 505.168 98.1814C508.275 101.288 510.197 105.571 510.197 110.293V122.527C510.197 126.985 508.477 131.058 505.669 134.112C508.477 137.166 510.197 141.238 510.197 145.697V159.871H499.095ZM454.643 128.556H493.057L493.127 128.565C494.76 128.539 496.234 127.863 497.322 126.784C498.411 125.687 499.095 124.177 499.095 122.527V110.293C499.095 108.634 498.411 107.133 497.322 106.036C496.217 104.939 494.716 104.255 493.057 104.255H454.643V128.556ZM703.98 159.871V104.255H676.176V93.1525H742.894V104.255H715.091V159.871H703.98ZM576.67 134.998V110.293C576.67 108.634 575.985 107.133 574.897 106.036C573.8 104.939 572.29 104.255 570.64 104.255H538.212C536.553 104.255 535.043 104.939 533.946 106.036C532.849 107.133 532.173 108.634 532.173 110.293V134.998H576.67ZM377.068 58.8017V63.1285C377.068 64.6644 377.692 66.051 378.692 67.0515L378.71 67.0691C379.701 68.0696 381.097 68.6839 382.633 68.6839H415.992C417.528 68.6839 418.914 68.0696 419.915 67.0691V67.0515C420.924 66.0335 421.547 64.6468 421.547 63.1285V60.5921C421.547 58.8193 420.906 57.222 419.844 56.0372C418.774 54.8348 417.255 54.0274 415.509 53.8255L381.895 50.0956C377.358 49.5865 373.374 47.4275 370.521 44.2417C367.669 41.0471 365.958 36.852 365.958 32.2971V29.7695C365.958 25.1882 367.827 21.0282 370.846 18.0003L370.864 17.9828C373.891 14.9637 378.051 13.0856 382.633 13.0856H415.992C420.564 13.0856 424.733 14.9637 427.761 17.9916L427.77 17.9828C430.797 21.0019 432.667 25.1706 432.667 29.7695V34.0962H421.547V29.7695C421.547 28.2424 420.924 26.8557 419.915 25.8464V25.8201C418.914 24.8284 417.528 24.2052 415.992 24.2052H382.633C381.097 24.2052 379.71 24.8284 378.701 25.8377C377.692 26.8382 377.068 28.2336 377.068 29.7695V32.2971C377.068 34.0699 377.709 35.6672 378.78 36.8608C379.851 38.0544 381.36 38.8706 383.115 39.0637L416.729 42.7936C421.266 43.3026 425.242 45.4616 428.094 48.6475C430.955 51.8421 432.667 56.0372 432.667 60.5921V63.1285C432.667 67.7185 430.797 71.8873 427.77 74.9064L427.761 74.8976C424.733 77.9255 420.564 79.8036 415.992 79.8036H382.633C378.069 79.8036 373.9 77.9255 370.864 74.9064L370.846 74.8888C367.827 71.8522 365.958 67.6922 365.958 63.1285V58.8017H377.068ZM764.853 58.8017V63.1285C764.853 64.6644 765.467 66.051 766.468 67.0515L766.485 67.0691C767.486 68.0696 768.872 68.6839 770.408 68.6839H803.767C805.303 68.6839 806.699 68.0696 807.69 67.0691V67.0515C808.7 66.0335 809.331 64.6468 809.331 63.1285V60.5921C809.331 58.8193 808.691 57.222 807.629 56.0372C806.549 54.8348 805.04 54.0274 803.285 53.8255L769.671 50.0956C765.134 49.5865 761.149 47.4275 758.306 44.2417C755.444 41.0471 753.733 36.852 753.733 32.2971V29.7695C753.733 25.1882 755.602 21.0282 758.622 18.0003L758.648 17.9828C761.667 14.9637 765.836 13.0856 770.408 13.0856H803.767C808.34 13.0856 812.508 14.9637 815.536 17.9916L815.554 17.9828C818.573 21.0019 820.442 25.1706 820.442 29.7695V34.0962H809.331V29.7695C809.331 28.2424 808.7 26.8557 807.69 25.8464V25.8201C806.699 24.8284 805.303 24.2052 803.767 24.2052H770.408C768.881 24.2052 767.486 24.8284 766.476 25.8377C765.476 26.8382 764.853 28.2336 764.853 29.7695V32.2971C764.853 34.0699 765.485 35.6672 766.555 36.8608C767.626 38.0544 769.144 38.8706 770.891 39.0637L804.504 42.7936C809.042 43.3026 813.026 45.4616 815.879 48.6475C818.731 51.8421 820.442 56.0372 820.442 60.5921V63.1285C820.442 67.7185 818.573 71.8873 815.554 74.9064L815.536 74.8976C812.508 77.9255 808.34 79.8036 803.767 79.8036H770.408C765.844 79.8036 761.676 77.9255 758.648 74.9064L758.622 74.8888C755.602 71.8522 753.733 67.6922 753.733 63.1285V58.8017H764.853ZM731.766 52.0088H687.296V68.7103H742.894V79.7773L676.176 79.7861V13.0856H742.894V24.2052H687.296V40.8891H731.766V52.0088ZM665.337 58.8017V63.1285C665.337 67.7185 663.459 71.8873 660.44 74.9064C657.421 77.9255 653.244 79.8036 648.653 79.8036H615.294C610.704 79.8036 606.536 77.9255 603.517 74.9064C600.497 71.8873 598.619 67.7185 598.619 63.1285V29.7695C598.619 25.1706 600.497 21.0019 603.517 17.9828C606.536 14.9637 610.704 13.0856 615.294 13.0856H648.653C653.226 13.0856 657.395 14.9637 660.423 17.9916L660.44 17.9828C663.459 21.0019 665.337 25.1706 665.337 29.7695V34.0962H654.218V29.7695C654.218 28.2424 653.586 26.8557 652.577 25.8464V25.8201C651.585 24.8284 650.198 24.2052 648.653 24.2052H615.294C613.776 24.2052 612.389 24.8371 611.371 25.8464C610.362 26.8557 609.739 28.2424 609.739 29.7695V63.1285C609.739 64.6468 610.362 66.0335 611.371 67.0515C612.389 68.0608 613.776 68.6839 615.294 68.6839H648.653C650.181 68.6839 651.567 68.0608 652.577 67.0515C653.586 66.0335 654.218 64.6468 654.218 63.1285V58.8017H665.337ZM587.781 58.8017V63.1285C587.781 67.7185 585.902 71.8873 582.883 74.9064C579.864 77.9255 575.695 79.8036 571.097 79.8036H537.746C533.156 79.8036 528.979 77.9255 525.96 74.9064V74.8888C522.941 71.8698 521.062 67.701 521.062 63.1285V29.7695C521.062 25.1882 522.941 21.0282 525.96 18.0003V17.9828C528.979 14.9637 533.156 13.0856 537.746 13.0856H571.097C575.669 13.0856 579.829 14.9637 582.866 17.9828L582.883 18.0003C585.902 21.037 587.781 25.197 587.781 29.7695V34.0962H576.661V29.7695C576.661 28.2248 576.046 26.8382 575.046 25.8464L575.028 25.8201C574.019 24.8284 572.632 24.2052 571.097 24.2052H537.746C536.219 24.2052 534.824 24.8371 533.823 25.8464L533.806 25.8377C532.805 26.8382 532.182 28.2336 532.182 29.7695V63.1285C532.182 64.6556 532.805 66.051 533.806 67.0603L533.823 67.0515C534.824 68.0608 536.219 68.6839 537.746 68.6839H571.097C572.624 68.6839 574.01 68.0608 575.028 67.0515C576.038 66.0335 576.661 64.6468 576.661 63.1285V58.8017H587.781Z" fill="#1C1B17"/>
<path fill-rule="evenodd" clip-rule="evenodd" d="M162.582 61.1275L213.292 10.4176C219.813 3.89671 228.274 0.421266 236.866 0H240.438C249.021 0.421266 257.481 3.89671 264.002 10.4176L314.712 61.1275C328.658 75.0644 328.658 97.883 314.712 111.829L264.002 162.539C257.034 169.516 247.836 173 238.647 173C229.458 173 220.27 169.516 213.292 162.539L162.582 111.829C148.637 97.883 148.637 75.0644 162.582 61.1275Z" fill="#9C9D9D"/>
<path fill-rule="evenodd" clip-rule="evenodd" d="M10.4614 61.1187L61.1714 10.4088C67.6834 3.89671 76.1351 0.430042 84.7096 0H88.3343C96.9088 0.430042 105.36 3.89671 111.873 10.4088L162.582 61.1187C176.528 75.0644 176.528 97.883 162.582 111.829L111.873 162.539C104.904 169.516 95.7152 173 86.5263 173C77.3287 173 68.1398 169.516 61.1714 162.539L10.4614 111.829C3.48422 104.851 0 95.6625 0 86.4737C0 77.2848 3.48422 68.0959 10.4614 61.1187Z" fill="#00B1EB"/>
<path d="M283.468 104.404V109.31C283.468 115.366 281.002 120.86 277.018 124.844C273.033 128.828 267.539 131.303 261.484 131.303H215.82C209.764 131.303 204.27 128.828 200.277 124.844C196.301 120.86 193.826 115.366 193.826 109.31V63.6463C193.826 57.5906 196.301 52.0878 200.277 48.1033C204.262 44.1276 209.764 41.6527 215.82 41.6527H261.484C267.539 41.6527 273.042 44.1276 277.018 48.1033C281.002 52.0878 283.468 57.5906 283.468 63.6463V68.5523H269.944V63.6463C269.944 61.3206 268.987 59.2142 267.451 57.6696C265.916 56.1425 263.8 55.1859 261.484 55.1859H215.82C213.503 55.1859 211.388 56.1425 209.852 57.6696C208.316 59.2142 207.36 61.3206 207.36 63.6463V109.31C207.36 111.627 208.316 113.742 209.852 115.278C211.388 116.814 213.503 117.77 215.82 117.77H261.484C263.8 117.77 265.916 116.814 267.451 115.278C268.987 113.742 269.944 111.627 269.944 109.31V104.404H283.468Z" fill="white"/>
<path d="M55.2297 104.404V109.31C55.2297 111.627 56.1863 113.742 57.7222 115.278C59.2581 116.814 61.3644 117.761 63.6902 117.761H109.354C111.671 117.761 113.786 116.814 115.322 115.278C116.857 113.742 117.814 111.627 117.814 109.31V105.843C117.814 103.21 116.857 100.823 115.26 99.0415C113.663 97.2511 111.39 96.0312 108.792 95.7415L62.7686 90.6337C56.7744 89.9667 51.5085 87.1056 47.7347 82.8929C43.9609 78.6803 41.7053 73.1336 41.7053 67.1042V63.6375C41.7053 57.5906 44.1715 52.0878 48.156 48.1033C52.1317 44.1276 57.6345 41.6527 63.6902 41.6527H109.354C115.409 41.6527 120.903 44.1276 124.888 48.1033C128.864 52.0878 131.338 57.5906 131.338 63.6375V68.5523H117.814V63.6375C117.814 61.3206 116.857 59.2055 115.322 57.6696C113.786 56.1337 111.671 55.1859 109.354 55.1859H63.6902C61.3644 55.1859 59.2581 56.1337 57.7222 57.6696C56.1863 59.2055 55.2297 61.3206 55.2297 63.6375V67.1042C55.2297 69.7371 56.1863 72.1243 57.7836 73.9059C59.381 75.6963 61.6453 76.9162 64.2518 77.2058L110.266 82.3225C116.269 82.9895 121.535 85.8418 125.3 90.0544C129.074 94.2759 131.338 99.8138 131.338 105.843V109.31C131.338 115.366 128.864 120.86 124.888 124.844C120.903 128.82 115.409 131.295 109.354 131.295H63.6902C57.6345 131.295 52.1317 128.82 48.156 124.844C44.1715 120.86 41.7053 115.366 41.7053 109.31V104.404H55.2297Z" fill="white"/>
<path fill-rule="evenodd" clip-rule="evenodd" d="M162.582 61.1274C176.528 75.0643 176.528 97.8829 162.582 111.829C148.637 97.8829 148.637 75.0643 162.582 61.1274Z" fill="#1993CC"/>
</svg>
